<?xml version="1.0" encoding="UTF-8"?>
<svg version="1.1" xmlns="http://www.w3.org/2000/svg" width="1287" height="366">
<path d="M0 0 C424.71 0 849.42 0 1287 0 C1287 120.78 1287 241.56 1287 366 C862.29 366 437.58 366 0 366 C0 245.22 0 124.44 0 0 Z " fill="#FEFEFE" transform="translate(0,0)"/>
<path d="M0 0 C1.60897827 0.00051981 3.21795717 -0.00000256 4.82693481 -0.00151062 C8.17703901 -0.0014215 11.52689954 0.00889079 14.87695312 0.02709961 C19.16408299 0.04989534 23.45086124 0.05030457 27.7380352 0.04358196 C31.05120964 0.04023866 34.36430425 0.04687706 37.67746353 0.0567112 C39.25866402 0.06054898 40.83987339 0.06171733 42.42107773 0.06012535 C44.62708207 0.05975356 46.83263751 0.07240257 49.03857422 0.08862305 C50.29113007 0.09323044 51.54368591 0.09783783 52.834198 0.10258484 C56.02790987 0.35499058 58.26071062 0.99073184 61.1328125 2.36328125 C61.1328125 3.02328125 61.1328125 3.68328125 61.1328125 4.36328125 C61.8753125 4.46640625 62.6178125 4.56953125 63.3828125 4.67578125 C67.09950113 5.60495341 69.24366855 7.22231212 71.59555817 10.24030876 C76.14171059 18.3864116 75.82576063 26.4886959 75.74804688 35.52783203 C75.75155302 37.25030055 75.75721716 38.97276582 75.76486206 40.69522095 C75.77904661 45.34812759 75.76211221 50.00043877 75.73857689 54.65328836 C75.71839261 59.53422673 75.72435127 64.4151422 75.72668457 69.29611206 C75.72663109 77.4886857 75.70692684 85.68102799 75.67480469 93.87353516 C75.63789134 103.33375668 75.62913353 112.79367563 75.6361022 122.25395977 C75.64241495 131.37255301 75.63164018 140.49104295 75.61213684 149.60961533 C75.60398041 153.4826289 75.60125004 157.35558955 75.60282898 161.22861099 C75.60371021 165.79076099 75.58942773 170.35262503 75.56360245 174.91469955 C75.55646283 176.58516808 75.55434637 178.25566708 75.55772018 179.92614746 C75.58365916 195.80110339 75.58365916 195.80110339 72.1328125 202.36328125 C69.6328125 204.86328125 69.6328125 204.86328125 67.1328125 206.36328125 C66.1428125 206.36328125 65.1528125 206.36328125 64.1328125 206.36328125 C64.1328125 207.02328125 64.1328125 207.68328125 64.1328125 208.36328125 C59.48545009 211.06224005 56.09241575 211.74613277 50.74145508 211.77978516 C50.02673035 211.78837051 49.31200562 211.79695587 48.57562256 211.80580139 C46.2260945 211.83077475 43.87699223 211.83523538 41.52734375 211.83984375 C39.88073971 211.85417281 38.23414756 211.86993321 36.58757019 211.88705444 C32.25668721 211.92884732 27.92587784 211.95386921 23.59484863 211.97454834 C16.68193641 212.01037891 9.76920755 212.07191522 2.85648155 212.13303757 C0.45769132 212.15190834 -1.94105052 212.16379838 -4.33988953 212.17446899 C-12.22471742 212.2222061 -20.02611043 212.44222552 -27.8671875 213.36328125 C-27.8671875 214.02328125 -27.8671875 214.68328125 -27.8671875 215.36328125 C-28.8571875 215.71390625 -29.8471875 216.06453125 -30.8671875 216.42578125 C-38.52836801 219.71136883 -43.93030093 225.52106483 -46.9921875 233.17578125 C-48.15455917 237.11240689 -48.15455917 237.11240689 -48.8671875 244.36328125 C-56.1271875 244.36328125 -63.3871875 244.36328125 -70.8671875 244.36328125 C-71.8571875 241.06328125 -72.8471875 237.76328125 -73.8671875 234.36328125 C-75.14591153 231.99957926 -76.47130083 229.65973996 -77.8671875 227.36328125 C-78.1971875 226.41453125 -78.5271875 225.46578125 -78.8671875 224.48828125 C-79.6630288 222.15999073 -79.6630288 222.15999073 -81.9921875 221.55078125 C-82.6109375 221.48890625 -83.2296875 221.42703125 -83.8671875 221.36328125 C-83.8671875 220.37328125 -83.8671875 219.38328125 -83.8671875 218.36328125 C-93.50414732 213.28963071 -103.39190793 212.93164029 -114.04578209 212.95259094 C-116.5568809 212.95712694 -119.06729628 212.94291075 -121.57832336 212.92419434 C-127.80710536 212.8815025 -134.03586788 212.87017592 -140.26477051 212.85797119 C-145.54948982 212.84640543 -150.83389206 212.82275676 -156.11847878 212.78327942 C-158.5801579 212.76979822 -161.04139658 212.77386164 -163.50309753 212.77868652 C-165.02379911 212.76934037 -166.54449593 212.75917016 -168.06518555 212.74804688 C-169.38213913 212.74599243 -170.69909271 212.74393799 -172.05595398 212.74182129 C-178.57365736 212.09446875 -184.94551689 209.73809957 -189.8671875 205.36328125 C-195.78778802 196.42778111 -195.55763279 187.10484989 -195.45068359 176.83813477 C-195.45091067 175.08932846 -195.45333144 173.34052129 -195.45776367 171.59172058 C-195.46343853 166.87299775 -195.43828555 162.15489994 -195.40708876 157.43629575 C-195.37942548 152.48944927 -195.37954303 147.54259963 -195.37637329 142.59568787 C-195.36719094 134.29813911 -195.339722 126.0008222 -195.29931641 117.70336914 C-195.24236857 105.9981696 -195.22014258 94.29308603 -195.20403171 82.58776963 C-195.19158242 74.47458769 -195.17090953 66.36142335 -195.1486516 58.24826312 C-195.14329042 56.28217209 -195.13815382 54.31608042 -195.13323927 52.34998822 C-195.11894189 46.75126736 -195.09951549 41.15261274 -195.07176208 35.55394173 C-195.06404095 33.85759659 -195.05797897 32.16124298 -195.05368423 30.46488571 C-195.04746592 28.15248966 -195.03511248 25.84020729 -195.02108765 23.52784729 C-195.01551535 22.23318826 -195.00994305 20.93852922 -195.00420189 19.6046381 C-194.89326185 16.9801236 -194.65282231 14.85006856 -193.8671875 12.36328125 C-193.2071875 12.36328125 -192.5471875 12.36328125 -191.8671875 12.36328125 C-191.5371875 11.37328125 -191.2071875 10.38328125 -190.8671875 9.36328125 C-189.5546875 7.828125 -189.5546875 7.828125 -187.8671875 6.30078125 C-187.3309375 5.79417969 -186.7946875 5.28757812 -186.2421875 4.765625 C-178.31160497 0.08292907 -168.31599443 1.06915501 -159.421875 1.09765625 C-157.9236749 1.09630519 -156.42547523 1.09436101 -154.92727661 1.09185791 C-151.79555057 1.0889219 -148.66393918 1.0931513 -145.53222656 1.10253906 C-141.56215596 1.11387316 -137.59235769 1.10740297 -133.62229729 1.09539413 C-130.5283309 1.08808305 -127.43442642 1.09050627 -124.34045792 1.09564972 C-122.87916149 1.09696394 -121.41785904 1.09541877 -119.95656967 1.09069061 C-103.6917225 1.049635 -88.58351025 1.79375375 -74.8671875 11.36328125 C-73.22099637 12.07901652 -71.55990695 12.76585085 -69.8671875 13.36328125 C-69.8671875 14.02328125 -69.8671875 14.68328125 -69.8671875 15.36328125 C-69.2484375 15.67265625 -68.6296875 15.98203125 -67.9921875 16.30078125 C-66.6171875 16.98828125 -65.2421875 17.67578125 -63.8671875 18.36328125 C-63.8671875 19.02328125 -63.8671875 19.68328125 -63.8671875 20.36328125 C-63.2071875 20.36328125 -62.5471875 20.36328125 -61.8671875 20.36328125 C-61.8671875 21.02328125 -61.8671875 21.68328125 -61.8671875 22.36328125 C-60.2171875 22.03328125 -58.5671875 21.70328125 -56.8671875 21.36328125 C-56.5371875 20.04328125 -56.2071875 18.72328125 -55.8671875 17.36328125 C-55.2071875 17.36328125 -54.5471875 17.36328125 -53.8671875 17.36328125 C-53.8671875 16.70328125 -53.8671875 16.04328125 -53.8671875 15.36328125 C-51.3057218 13.06679476 -50.38751178 12.36328125 -46.8671875 12.36328125 C-46.8671875 11.70328125 -46.8671875 11.04328125 -46.8671875 10.36328125 C-45.8771875 10.36328125 -44.8871875 10.36328125 -43.8671875 10.36328125 C-43.8671875 9.70328125 -43.8671875 9.04328125 -43.8671875 8.36328125 C-41.43050714 7.58978046 -38.99288813 6.81946419 -36.5546875 6.05078125 C-35.88373047 5.83744141 -35.21277344 5.62410156 -34.52148438 5.40429688 C-33.1239031 4.96468211 -31.72330981 4.5345406 -30.32002258 4.11349487 C-28.74068923 3.63044674 -27.16864235 3.12252657 -25.60722351 2.5843811 C-17.10635399 -0.11564876 -8.80923758 -0.05667413 0 0 Z " fill="#6B4CDE" transform="translate(205.8671875,63.63671875)"/>
<path d="M0 0 C0 53.79 0 107.58 0 163 C-22.77 163.33 -45.54 163.66 -69 164 C-69.66 164.33 -70.32 164.66 -71 165 C-73.6723621 165.13415472 -76.32250488 165.04318541 -79 165 C-79 165.66 -79 166.32 -79 167 C-79.97582031 167.25394531 -80.95164063 167.50789062 -81.95703125 167.76953125 C-83.22933594 168.11371094 -84.50164062 168.45789063 -85.8125 168.8125 C-87.07707031 169.14894531 -88.34164062 169.48539063 -89.64453125 169.83203125 C-92.86313289 170.95235941 -93.76957319 171.66240553 -96 174 C-97.32 174 -98.64 174 -100 174 C-100.04677747 155.38017951 -100.08201698 136.760371 -100.10362434 118.14050388 C-100.1139249 109.49444677 -100.12796185 100.84842622 -100.15087891 92.20239258 C-100.17085021 84.66410879 -100.18372531 77.1258515 -100.18817699 69.587542 C-100.19077804 65.59825576 -100.19686611 61.60904529 -100.21146011 57.6197834 C-100.22510319 53.85975323 -100.22920913 50.09982957 -100.22621536 46.33977699 C-100.22702209 44.31257387 -100.23774837 42.28538217 -100.24884033 40.25820923 C-100.2336834 33.51029338 -99.77982305 27.51759708 -98 21 C-97.34 21 -96.68 21 -96 21 C-95.9175 20.113125 -95.835 19.22625 -95.75 18.3125 C-94.66531773 13.52181999 -92.77317953 11.24493267 -88.7578125 8.42578125 C-83.95729953 5.41269332 -79.56751271 3.26056891 -74 2 C-50.27374849 -4.778929 -24.67567403 0 0 0 Z " fill="#FEFDFE" transform="translate(257,88)"/>
<path d="M0 0 C71 0 71 0 83 5 C83 5.66 83 6.32 83 7 C83.73992187 7.08894531 84.47984375 7.17789063 85.2421875 7.26953125 C90.46699729 8.65343979 93.13034232 12.62798343 96 17 C99.08721942 26.2783413 99.42359623 35.75198931 99.34057617 45.44091797 C99.33972713 46.82227561 99.34021043 48.20363459 99.34190369 49.58499146 C99.34275428 53.28664649 99.32528298 56.98800186 99.30418181 60.68958807 C99.28525633 64.57593048 99.28365221 68.46228195 99.28010559 72.34866333 C99.27083125 79.6864508 99.24628088 87.02410203 99.21605712 94.36182988 C99.18236834 102.72473307 99.16599094 111.08764322 99.15097082 119.45059752 C99.11972644 136.63381011 99.06705707 153.81689059 99 171 C94.6850046 170.43584866 90.97591818 169.80723554 87 168 C87 167.34 87 166.68 87 166 C58.04882832 164.19055177 29.00478508 164.4085181 0 164 C0 109.88 0 55.76 0 0 Z " fill="#FDFCFE" transform="translate(34,88)"/>
<path d="M0 0 C9.57 0 19.14 0 29 0 C29 46.2 29 92.4 29 140 C19.43 140 9.86 140 0 140 C-0.33 134.72 -0.66 129.44 -1 124 C-1.804375 125.36125 -2.60875 126.7225 -3.4375 128.125 C-6.84441012 133.22334079 -10.63697192 136.12497464 -16 139 C-16.62648438 139.3403125 -17.25296875 139.680625 -17.8984375 140.03125 C-26.12725428 143.78109056 -36.28952268 142.94232925 -44.66015625 140.0390625 C-48.83208176 138.18642112 -52.41669759 135.81305984 -56 133 C-56.61746094 132.52046875 -57.23492188 132.0409375 -57.87109375 131.546875 C-66.86298953 123.6163834 -72.13156409 109.8550517 -73.28320312 98.11230469 C-73.40049504 95.15118072 -73.41704478 92.21307567 -73.375 89.25 C-73.36412354 88.20158936 -73.35324707 87.15317871 -73.34204102 86.07299805 C-73.02469078 70.52044164 -70.12640398 56.45779438 -59.3125 44.5625 C-49.78936673 35.74893352 -38.94910318 33.51534883 -26.46875 33.7265625 C-17.46172027 34.1030981 -11.029451 38.46701884 -5 45 C-3.68 46.98 -2.36 48.96 -1 51 C-0.67 34.17 -0.34 17.34 0 0 Z " fill="#111930" transform="translate(734,112)"/>
<path d="M0 0 C78.77474293 0 78.77474293 0 93.3046875 13.14453125 C102.34142763 23.03497264 105.58103855 33.62591122 105.5 46.75 C105.49500488 47.80896484 105.49000977 48.86792969 105.48486328 49.95898438 C105.17736511 63.77731597 100.37310377 74.0233661 90.4375 83.625 C77.26583901 94.63076645 62.18405796 95.30698119 45.875 95.125 C40.63625 95.08375 35.3975 95.0425 30 95 C30 109.85 30 124.7 30 140 C20.1 140 10.2 140 0 140 C0 93.8 0 47.6 0 0 Z " fill="#121A31" transform="translate(898,112)"/>
<path d="M0 0 C8.54013169 7.20050319 15.28104896 17.03694086 18.15234375 27.93359375 C18.15234375 29.91359375 18.15234375 31.89359375 18.15234375 33.93359375 C8.25234375 33.93359375 -1.64765625 33.93359375 -11.84765625 33.93359375 C-13.49765625 30.63359375 -15.14765625 27.33359375 -16.84765625 23.93359375 C-23.33001224 16.93264928 -31.3269355 13.80404981 -40.84765625 13.43359375 C-51.0192193 13.86726504 -58.378725 17.39150444 -65.68359375 24.4296875 C-68.98066905 28.24453455 -71.0233116 32.26071096 -72.84765625 36.93359375 C-73.46640625 38.51140625 -73.46640625 38.51140625 -74.09765625 40.12109375 C-78.23400468 55.63240036 -76.6426448 73.23681295 -69.78515625 87.74609375 C-68.0980424 90.82230918 -68.0980424 90.82230918 -66.2265625 92.5078125 C-64.84765625 93.93359375 -64.84765625 93.93359375 -64.84765625 95.93359375 C-64.29078125 96.21074219 -63.73390625 96.48789063 -63.16015625 96.7734375 C-61.57265452 97.56986996 -59.98951585 98.37504097 -58.41015625 99.1875 C-57.56453125 99.61933594 -56.71890625 100.05117187 -55.84765625 100.49609375 C-55.00203125 100.93050781 -54.15640625 101.36492187 -53.28515625 101.8125 C-45.27558993 105.49638707 -35.22948996 105.07333024 -26.97265625 102.37109375 C-19.07952247 99.04644535 -13.88317451 94.34040149 -10.5390625 86.4375 C-9.59511611 83.01902749 -9.28753366 79.45261306 -8.84765625 75.93359375 C-18.74765625 75.93359375 -28.64765625 75.93359375 -38.84765625 75.93359375 C-38.84765625 68.67359375 -38.84765625 61.41359375 -38.84765625 53.93359375 C-19.37765625 53.93359375 0.09234375 53.93359375 20.15234375 53.93359375 C20.15234375 95.99957313 20.15234375 95.99957313 6.15234375 111.93359375 C5.57871094 112.62453125 5.00507813 113.31546875 4.4140625 114.02734375 C-5.21225926 124.74616027 -20.93327827 130.50369239 -35.09375 131.3125 C-55.47692265 131.9749222 -72.64144174 127.07714435 -87.84765625 112.93359375 C-102.52053344 97.68530961 -107.65638003 76.33336385 -107.36669922 55.71557617 C-106.60864372 34.55291025 -99.39353148 16.4949732 -83.84765625 1.93359375 C-60.64960197 -19.01948754 -24.5752316 -17.83305558 0 0 Z " fill="#121A31" transform="translate(434.84765625,123.06640625)"/>
<path d="M0 0 C11.589329 8.03254521 18.65343504 19.68826532 21.65234375 33.42578125 C24.01023839 50.32077838 21.57997116 67.28363268 12.125 81.8125 C6.01473543 89.50488664 -0.83197134 94.13459707 -9.875 97.8125 C-10.63941406 98.15152344 -11.40382813 98.49054688 -12.19140625 98.83984375 C-24.90517705 103.6379103 -41.51778683 101.80627634 -53.73046875 96.59375 C-66.22457702 90.389779 -74.26314509 80.1705928 -79.25 67.3125 C-83.67316144 51.70134198 -82.87127375 32.4929127 -75.44921875 18.03515625 C-68.18062429 5.24468382 -58.17845732 -2.64919762 -44.03027344 -6.71801758 C-29.44510012 -9.89510053 -12.77227256 -7.49260191 0 0 Z " fill="#121A30" transform="translate(1177.875,153.1875)"/>
<path d="M0 0 C0.88558594 -0.00773438 1.77117188 -0.01546875 2.68359375 -0.0234375 C14.73518185 0.0119563 28.05495545 3.05808578 37.0390625 11.58203125 C43.20862415 18.62588907 45.82096512 25.81672879 45.72705078 35.18310547 C45.72734283 35.9545137 45.72763489 36.72592194 45.72793579 37.52070618 C45.72655011 40.0529838 45.71102512 42.58496172 45.6953125 45.1171875 C45.69157966 46.87980997 45.68873396 48.64243452 45.68673706 50.40505981 C45.67912198 55.03122749 45.65949182 59.65726843 45.6373291 64.28338623 C45.61682481 69.00921922 45.60772556 73.7350728 45.59765625 78.4609375 C45.57624384 87.72402281 45.54107909 96.98698101 45.5 106.25 C36.26 106.25 27.02 106.25 17.5 106.25 C17.17 101.96 16.84 97.67 16.5 93.25 C14.953125 95.10625 14.953125 95.10625 13.375 97 C6.95016023 104.2857683 0.16509862 107.78765665 -9.47265625 108.57421875 C-20.90544919 109.0087986 -30.63913858 107.35689603 -39.78125 99.95703125 C-45.46003222 94.316968 -48.70386246 87.2543697 -48.93164062 79.27294922 C-48.95607195 70.0562323 -48.06432754 63.3699848 -41.703125 56.234375 C-32.84844542 47.80472004 -21.62625686 45.38390549 -9.8125 44.3125 C2.93733993 43.54078014 2.93733993 43.54078014 14.32421875 38.86328125 C16.35189139 36.08112577 15.84261028 33.56189939 15.5 30.25 C14.17571537 27.0128598 12.89876514 25.55432077 10.125 23.4375 C3.94951851 21.41449744 -2.82090901 20.91318744 -9.015625 23.1640625 C-13.59113017 25.79074139 -15.28977727 28.41430058 -17.5 33.25 C-21.06278089 33.11057319 -24.6251426 32.96232922 -28.1875 32.8125 C-29.19490234 32.77318359 -30.20230469 32.73386719 -31.24023438 32.69335938 C-32.70493164 32.63051758 -32.70493164 32.63051758 -34.19921875 32.56640625 C-35.09471436 32.52974854 -35.99020996 32.49309082 -36.9128418 32.45532227 C-39.50778088 32.24938249 -41.96054684 31.81232178 -44.5 31.25 C-44.3219237 23.23656659 -39.97387739 16.6244462 -34.31640625 11.12890625 C-23.76102565 2.62240369 -13.40932276 -0.11711199 0 0 Z " fill="#121A31" transform="translate(598.5,145.75)"/>
<path d="M0 0 C10.94297108 7.88821944 15.48907638 21.34494496 18 34 C18 39.94 18 45.88 18 52 C-5.76 52 -29.52 52 -54 52 C-51.02308785 65.25901205 -51.02308785 65.25901205 -42 74 C-35.1517751 76.68899226 -27.71541111 77.25794514 -20.5546875 75.34765625 C-16.73947516 73.65764774 -14.91373429 72.0570825 -13.0390625 68.34765625 C-11.27311743 65.78663486 -10.50028196 65.09435472 -7.39941406 64.50952148 C-4.19030105 64.49944456 -1.07004062 64.70129206 2.125 65 C3.22199219 65.07089844 4.31898438 65.14179688 5.44921875 65.21484375 C13.28955988 65.76318663 13.28955988 65.76318663 17 67 C15.4092137 76.42750199 10.56148816 84.18827769 3 90 C-7.20367272 96.20664782 -17.43970009 99.56718417 -29.375 99.375 C-30.2932959 99.36484863 -31.2115918 99.35469727 -32.15771484 99.34423828 C-45.71663198 99.03526455 -58.20552528 95.18079326 -68.37890625 85.8125 C-78.84900973 74.10616743 -83.5209765 58.63647916 -83.18359375 43.13671875 C-82.2533584 27.24354878 -77.53335175 12.71535745 -65.49609375 1.7109375 C-45.56371484 -13.78235265 -21.13705316 -12.30892833 0 0 Z " fill="#121A31" transform="translate(863,155)"/>
<path d="M0 0 C1.2684375 -0.01675781 2.536875 -0.03351563 3.84375 -0.05078125 C7.5 0.3125 7.5 0.3125 13.5 3.3125 C10.86 11.2325 8.22 19.1525 5.5 27.3125 C3.85 26.9825 2.2 26.6525 0.5 26.3125 C-6.39935905 25.64635499 -12.06845406 25.54576015 -17.8125 29.74609375 C-22.08811643 33.71489512 -25.32387465 38.16396856 -25.65821838 44.14091492 C-25.67376266 45.2889711 -25.68930695 46.43702728 -25.70532227 47.61987305 C-25.72526749 48.92099533 -25.74521271 50.22211761 -25.76576233 51.56266785 C-25.78274546 52.9831836 -25.79962431 54.4037006 -25.81640625 55.82421875 C-25.83698137 57.27725306 -25.85797799 58.73028146 -25.87937927 60.18330383 C-25.93454234 64.0054953 -25.98397698 67.82774026 -26.03222656 71.65002441 C-26.09132171 76.23728531 -26.15751793 80.82444855 -26.22252655 85.41162872 C-26.32046355 92.37852611 -26.40936905 99.34548648 -26.5 106.3125 C-36.07 106.3125 -45.64 106.3125 -55.5 106.3125 C-55.5 71.6625 -55.5 37.0125 -55.5 1.3125 C-46.26 1.3125 -37.02 1.3125 -27.5 1.3125 C-27.5 7.2525 -27.5 13.1925 -27.5 19.3125 C-26.84 19.3125 -26.18 19.3125 -25.5 19.3125 C-25.4175 18.61125 -25.335 17.91 -25.25 17.1875 C-23.57633625 10.77178895 -18.95540292 5.89193432 -13.5 2.3125 C-8.92668663 0.40155461 -4.93715123 0.01505229 0 0 Z " fill="#111930" transform="translate(1075.5,145.6875)"/>
<path d="M0 0 C1.890625 0.828125 1.890625 0.828125 4.453125 2.328125 C3.8192771 7.84528 1.94748191 12.59560309 -0.109375 17.703125 C-0.43873047 18.53457031 -0.76808594 19.36601562 -1.10742188 20.22265625 C-1.91532262 22.25997118 -2.7285761 24.29496942 -3.546875 26.328125 C-4.61615234 26.08835938 -4.61615234 26.08835938 -5.70703125 25.84375 C-12.63093756 24.58658957 -19.57177607 24.20246145 -25.546875 28.328125 C-30.20135127 32.33313947 -33.17959197 36.35548113 -33.94560242 42.55526733 C-33.95670547 43.71442657 -33.96780853 44.87358582 -33.97924805 46.06787109 C-33.9894397 46.71248291 -33.99963135 47.35709473 -34.01013184 48.02124023 C-34.04009347 50.13143799 -34.04950127 52.24118061 -34.05859375 54.3515625 C-34.07545305 55.82273853 -34.09360497 57.29390027 -34.11299133 58.76504517 C-34.16036212 62.62171969 -34.19025463 66.47833624 -34.21643066 70.33520508 C-34.25156122 74.97100515 -34.30853695 79.60658267 -34.36182404 84.24220276 C-34.44018649 91.27081474 -34.49090558 98.29913842 -34.546875 105.328125 C-44.116875 105.328125 -53.686875 105.328125 -63.546875 105.328125 C-63.546875 70.678125 -63.546875 36.028125 -63.546875 0.328125 C-54.306875 0.328125 -45.066875 0.328125 -35.546875 0.328125 C-35.051875 8.248125 -35.051875 8.248125 -34.546875 16.328125 C-33.7425 14.801875 -32.938125 13.275625 -32.109375 11.703125 C-25.20795181 0.09094517 -12.78473025 -3.3726589 0 0 Z " fill="#111930" transform="translate(538.546875,146.671875)"/>
<path d="M0 0 C6.54184593 3.6357329 10.46043812 10.10091609 12.62890625 17.1484375 C15.16481574 29.06721208 14.69582556 42.39905909 8.90234375 53.2890625 C6.05326007 57.44907426 2.40437159 60.55661572 -2.37109375 62.1484375 C-8.18222328 62.62170706 -13.51882963 63.00841727 -18.87109375 60.5234375 C-27.20830563 52.60308622 -30.43191845 44.65446783 -30.84545898 33.07763672 C-30.93073083 24.78921374 -30.26665277 17.62845187 -26.37109375 10.1484375 C-25.79359375 9.0346875 -25.21609375 7.9209375 -24.62109375 6.7734375 C-18.11996517 -0.81121251 -9.69004409 -3.48011468 0 0 Z " fill="#FCFCFD" transform="translate(1156.37109375,168.8515625)"/>
<path d="M0 0 C5.84079996 3.34042366 9.90424616 8.45865367 11.90966797 14.89648438 C12.91132166 19.61538621 12.95462551 24.38719906 12.99609375 29.1953125 C13.00713135 30.20835449 13.01816895 31.22139648 13.02954102 32.26513672 C12.84787193 41.84759618 10.33061081 50.27649823 3.37109375 57.0703125 C-3.13269331 60.93542024 -9.239673 61.08369306 -16.62890625 60.0703125 C-23.32900528 57.31941647 -26.88892905 51.53806984 -29.62890625 45.0703125 C-31.10802419 40.11060351 -30.8926572 35.08021244 -30.94140625 29.9453125 C-30.97041016 28.95015625 -30.99941406 27.955 -31.02929688 26.9296875 C-31.09951248 18.6550483 -29.23074329 12.19736436 -24.81640625 5.1953125 C-17.81005501 -1.61085728 -9.3747997 -3.31530807 0 0 Z " fill="#FCFCFC" transform="translate(721.62890625,169.9296875)"/>
<path d="M0 0 C6.1565625 -0.0928125 6.1565625 -0.0928125 12.4375 -0.1875 C13.71294678 -0.21481201 14.98839355 -0.24212402 16.30249023 -0.27026367 C24.31242918 -0.32834744 30.80198479 0.51935465 37.75 4.625 C42.91377488 10.07565126 45.31501705 14.96939034 45.5 22.5625 C45.17998741 30.18057745 43.55138657 36.44861343 38 42 C32.11622096 46.15655989 26.90602295 47.13254198 19.82421875 47.09765625 C18.25933716 47.09390991 18.25933716 47.09390991 16.6628418 47.09008789 C14.69504761 47.07643188 14.69504761 47.07643188 12.6875 47.0625 C8.500625 47.041875 4.31375 47.02125 0 47 C0 31.49 0 15.98 0 0 Z " fill="#FCFCFC" transform="translate(928,136)"/>
<path d="M0 0 C3.63 0 7.26 0 11 0 C11 8.25 11 16.5 11 25 C19.58 25 28.16 25 37 25 C37 28.96 37 32.92 37 37 C28.42 37 19.84 37 11 37 C11 45.58 11 54.16 11 63 C7.04 63 3.08 63 -1 63 C-1 54.42 -1 45.84 -1 37 C-9.25 37 -17.5 37 -26 37 C-26 33.04 -26 29.08 -26 25 C-17.42 25 -8.84 25 0 25 C0 16.75 0 8.5 0 0 Z " fill="#6B4EDE" transform="translate(1214,103)"/>
<path d="M0 0 C0.81094808 17.30022573 0.81094808 17.30022573 -4 23 C-9.69697064 28.3521177 -15.99171692 30.45918776 -23.7578125 30.25 C-28.50367076 29.72084507 -31.87918261 27.97712285 -35.4375 24.875 C-37.62752821 20.84534809 -37.77681653 17.48918183 -37 13 C-34.77896674 8.65450014 -31.49714639 6.73145229 -27.1171875 4.91015625 C-20.51738006 2.9831448 -13.6338553 2.21311156 -6.82836914 1.32543945 C-4.15966824 0.85042566 -2.86169969 0 0 0 Z " fill="#FAFAFB" transform="translate(615,204)"/>
<path d="M0 0 C1.28648437 -0.01675781 2.57296875 -0.03351563 3.8984375 -0.05078125 C8.6696341 0.4143354 11.91851096 1.74092569 15.453125 4.99609375 C15.92234375 5.57488281 16.3915625 6.15367187 16.875 6.75 C17.35453125 7.32621094 17.8340625 7.90242187 18.328125 8.49609375 C21.74921834 13.28768533 21.625 14.73727662 21.625 21.3125 C7.105 21.3125 -7.415 21.3125 -22.375 21.3125 C-20.16042859 11.34692865 -18.12314945 6.65059607 -9.6796875 1.22265625 C-6.41176996 -0.06789424 -3.5027159 0.01048717 0 0 Z " fill="#FBFBFB" transform="translate(831.375,167.6875)"/>
<path d="M0 0 C1.36459838 2.72919677 0.68979716 4.12149913 0.07055664 7.09716797 C-1.30060894 14.88772763 -1.21385345 22.57029786 -1.12890625 30.4453125 C-1.11814255 32.15674175 -1.10855448 33.86817869 -1.09999084 35.57962036 C-1.08547882 38.44500671 -1.07004461 41.31036534 -1.05105114 44.17572594 C-0.99657819 52.6690297 -0.99813829 61.16183949 -1.01123047 69.65527344 C-1.03069973 82.82947879 -1.01510368 96.00326197 -0.9715023 109.17741013 C-0.94701751 116.84903066 -0.9362182 124.52024839 -0.95532227 132.19189453 C-0.97225258 139.00663798 -0.9646161 145.82084047 -0.92765242 152.63551247 C-0.90909835 156.20700242 -0.90218985 159.77757259 -0.92530632 163.34905624 C-0.95046245 167.29943824 -0.920688 171.24839527 -0.88647461 175.19873047 C-0.9101989 176.93003708 -0.9101989 176.93003708 -0.93440247 178.69631958 C-0.79667509 186.96934369 1.61436497 191.76215263 7 198 C4 198 4 198 2.0625 196.5625 C-4.98939775 187.80105128 -4.55675248 178.41107513 -4.4699707 167.7019043 C-4.47048008 165.95339325 -4.4727395 164.20488197 -4.47660828 162.45637512 C-4.48200784 157.72936234 -4.46267135 153.00274442 -4.43850732 148.27580237 C-4.41715535 143.32359551 -4.41780393 138.37138925 -4.41581726 133.41914368 C-4.4093793 125.10968256 -4.38816445 116.80036917 -4.35668945 108.4909668 C-4.31633396 97.82302497 -4.29899017 87.15517913 -4.28938007 76.48717022 C-4.28108209 67.31117577 -4.26384933 58.13520165 -4.24434257 48.95922494 C-4.24029371 46.9903406 -4.23655413 45.02145561 -4.2331202 43.0525701 C-4.22333525 37.44409795 -4.20884663 31.83568326 -4.1862812 26.22724724 C-4.18015932 24.52767711 -4.17570883 22.82810002 -4.17303848 21.12852097 C-4.16905628 18.81164358 -4.15893765 16.49487335 -4.14717102 14.17802429 C-4.14289754 12.88076762 -4.13862406 11.58351095 -4.13422108 10.24694347 C-4.02557716 7.61873726 -3.78764239 5.48965569 -3 3 C-2.34 3 -1.68 3 -1 3 C-0.67 2.01 -0.34 1.02 0 0 Z " fill="#694FBF" transform="translate(15,73)"/>
<path d="M0 0 C0.33 0 0.66 0 1 0 C1 54.12 1 108.24 1 164 C24.43 164 47.86 164 72 164 C77.28 164.66 82.56 165.32 88 166 C88 166.66 88 167.32 88 168 C89.175625 168.185625 89.175625 168.185625 90.375 168.375 C93 169 93 169 95 171 C93.35 171 91.7 171 90 171 C90 170.34 90 169.68 90 169 C86.37 169 82.74 169 79 169 C78.67 168.34 78.34 167.68 78 167 C77.05230743 167.00222061 76.10461487 167.00444122 75.12820435 167.00672913 C66.21084586 167.02697309 57.29349202 167.04197821 48.3761158 167.05181217 C43.79126149 167.0570378 39.20642569 167.06412967 34.62158203 167.07543945 C30.19958183 167.08627967 25.77759946 167.09227925 21.35558701 167.09487724 C19.66583856 167.09672944 17.97609113 167.10034614 16.28635025 167.10573006 C13.92541622 167.11295551 11.56455653 167.1139903 9.20361328 167.11352539 C8.50014771 167.11712067 7.79668213 167.12071594 7.07189941 167.12442017 C2.22810432 167.11405216 2.22810432 167.11405216 0 166 C0 111.22 0 56.44 0 0 Z " fill="#7760D1" transform="translate(33,88)"/>
<path d="M0 0 C1.39818267 0.00186947 2.796366 0.00329087 4.19454956 0.00428772 C7.84079864 0.00807127 11.48700667 0.01786505 15.13323975 0.0289917 C18.86746669 0.03929625 22.60170038 0.04380455 26.3359375 0.04882812 C33.63803936 0.05949186 40.94010764 0.07651706 48.2421875 0.09765625 C48.2421875 0.75765625 48.2421875 1.41765625 48.2421875 2.09765625 C47.42057129 2.10352249 46.59895508 2.10938873 45.75244141 2.11543274 C37.98460776 2.17349426 30.21708995 2.24564726 22.44953918 2.33337116 C18.45677739 2.37797386 14.46411525 2.41725171 10.47119141 2.4440918 C6.61305237 2.47022628 2.75529894 2.51069894 -1.1026001 2.56084251 C-2.56963277 2.57744303 -4.03673203 2.58899956 -5.50384521 2.59527016 C-13.15650633 2.6312683 -19.71973545 2.83482293 -26.7578125 6.09765625 C-28.12584676 6.43936303 -29.50090876 6.75475779 -30.8828125 7.03515625 C-34.76773789 7.92991269 -37.51284025 9.77981893 -40.7578125 12.09765625 C-41.4178125 12.09765625 -42.0778125 12.09765625 -42.7578125 12.09765625 C-44.62332676 15.68518367 -46.18317178 19.37577818 -47.7578125 23.09765625 C-48.4178125 23.09765625 -49.0778125 23.09765625 -49.7578125 23.09765625 C-50.80522318 30.85909834 -50.92886248 38.51271935 -50.96313477 46.33813477 C-50.9727312 47.75816623 -50.98274227 49.17819495 -50.99313354 50.59822083 C-51.0199976 54.42812651 -51.04110642 58.25804429 -51.06113553 62.087991 C-51.08311022 66.09985596 -51.11044234 70.11168445 -51.13719177 74.1235199 C-51.18696428 81.70930034 -51.23195992 89.2951012 -51.27521414 96.8809213 C-51.32471909 105.52186032 -51.37958775 114.16276271 -51.43489373 122.80366623 C-51.54847649 140.56829552 -51.65536648 158.33295943 -51.7578125 176.09765625 C-51.0978125 176.42765625 -50.4378125 176.75765625 -49.7578125 177.09765625 C-50.7478125 177.09765625 -51.7378125 177.09765625 -52.7578125 177.09765625 C-52.80456972 157.6782617 -52.83981959 138.2588786 -52.86143684 118.83943939 C-52.87174168 109.82230241 -52.88578686 100.80520044 -52.90869141 91.78808594 C-52.92864955 83.92715954 -52.9415347 76.06625851 -52.94598949 68.20530748 C-52.94859276 64.04446809 -52.95469507 59.88370124 -52.96927261 55.72288513 C-52.98289483 51.80280793 -52.98702579 47.88283285 -52.98402786 43.96273422 C-52.98457595 42.52768778 -52.9885257 41.09263775 -52.99622345 39.65761185 C-53.08327151 22.58584476 -53.08327151 22.58584476 -48.7578125 16.09765625 C-48.0978125 16.09765625 -47.4378125 16.09765625 -46.7578125 16.09765625 C-46.7578125 14.77765625 -46.7578125 13.45765625 -46.7578125 12.09765625 C-41.64417614 7.09765625 -41.64417614 7.09765625 -37.7578125 7.09765625 C-37.7578125 6.43765625 -37.7578125 5.77765625 -37.7578125 5.09765625 C-35.1178125 5.09765625 -32.4778125 5.09765625 -29.7578125 5.09765625 C-29.7578125 4.43765625 -29.7578125 3.77765625 -29.7578125 3.09765625 C-20.89782527 -1.33233736 -9.61423926 -0.03817859 0 0 Z " fill="#775FCC" transform="translate(208.7578125,85.90234375)"/>
<path d="M0 0 C0.33 0 0.66 0 1 0 C1 47.52 1 95.04 1 144 C3.31 143.01 5.62 142.02 8 141 C9.32 141 10.64 141 12 141 C12 140.34 12 139.68 12 139 C13.65 139 15.3 139 17 139 C17 138.34 17 137.68 17 137 C21.29 136.67 25.58 136.34 30 136 C28 138 28 138 26.0546875 138.1953125 C24.03645833 138.13020833 22.01822917 138.06510417 20 138 C20 138.66 20 139.32 20 140 C19.02417969 140.25394531 18.04835937 140.50789062 17.04296875 140.76953125 C15.77066406 141.11371094 14.49835938 141.45789063 13.1875 141.8125 C11.92292969 142.14894531 10.65835938 142.48539063 9.35546875 142.83203125 C6.13686711 143.95235941 5.23042681 144.66240553 3 147 C1.68 147 0.36 147 -1 147 C-1.02334298 128.27654648 -1.04098607 109.5530959 -1.05181217 90.82963085 C-1.05697215 82.13633424 -1.06400919 73.44304667 -1.07543945 64.74975586 C-1.08539538 57.17417419 -1.0918556 49.59859906 -1.09408849 42.02301103 C-1.09539405 38.01046681 -1.09847016 33.9979413 -1.10573006 29.98540306 C-1.11250458 26.21063869 -1.11461402 22.43590078 -1.11310768 18.66113091 C-1.11338336 17.27397773 -1.11538001 15.88682368 -1.11920547 14.49967575 C-1.12416497 12.60897711 -1.12239234 10.71826436 -1.12025452 8.82756042 C-1.12117631 7.76842029 -1.1220981 6.70928015 -1.12304783 5.61804485 C-1 3 -1 3 0 0 Z " fill="#D3C7F4" transform="translate(158,115)"/>
<path d="M0 0 C3.93956767 0.80582066 5.67549623 1.60338428 8.25 4.75 C13.05710288 14.38872562 12.28700328 26.94570371 12.22705078 37.44091797 C12.22648475 38.82227571 12.22680695 40.20363406 12.22793579 41.58499146 C12.22850284 45.28657825 12.21685521 48.98803186 12.20278788 52.68958807 C12.19017086 56.57593937 12.18910146 60.4622947 12.18673706 64.34866333 C12.1805542 71.68641453 12.16418725 79.02410518 12.14403808 86.36182988 C12.12157886 94.72474382 12.1106606 103.08766086 12.10064721 111.45059752 C12.07981768 128.63376654 12.04470475 145.81687684 12 163 C11.34 163.33 10.68 163.66 10 164 C9.99853344 163.25677301 9.99706688 162.51354603 9.99555588 161.74779701 C9.95844944 143.6350877 9.89938396 125.52257064 9.81609726 107.4100132 C9.77634531 98.65078055 9.74393334 89.89163725 9.72900391 81.13232422 C9.71596741 73.49467901 9.68895194 65.8572307 9.64538693 58.2196964 C9.62281685 54.17837476 9.60708663 50.13729556 9.60811615 46.0959053 C9.60886542 42.2856082 9.59080887 38.47584612 9.55883217 34.66568756 C9.5503706 33.2734382 9.54855762 31.88112855 9.55419731 30.4888649 C9.5967899 18.34945192 6.78793311 9.95934449 0 0 Z " fill="#6247C6" transform="translate(125,99)"/>
<path d="M0 0 C2.5333328 1.2666664 2.65123399 2.04385752 3.60371399 4.66673279 C5.62262507 11.13106313 5.39659841 17.62551605 5.34057617 24.33227539 C5.33972853 25.76215599 5.34020771 27.19203788 5.34190369 28.62191772 C5.34275974 32.47881607 5.32519777 36.335431 5.30418181 40.19226384 C5.28534948 44.23211917 5.28365943 48.27198194 5.28010559 52.31187439 C5.2708043 59.95086105 5.24621665 67.58971796 5.21605712 75.22864765 C5.18245325 83.93000257 5.16601209 92.63136389 5.15097082 101.33276761 C5.11966524 119.22191846 5.06694227 137.11094877 5 155 C3.68 155 2.36 155 1 155 C1 154.34 1 153.68 1 153 C0.01 152.67 -0.98 152.34 -2 152 C-0.35 152 1.3 152 3 152 C2.91591833 133.95344109 2.82071882 115.90697615 2.71247292 97.86054611 C2.6624626 89.48029128 2.61601887 81.10004567 2.578125 72.71972656 C2.54506736 65.41099091 2.5051613 58.10232932 2.45720994 50.79367566 C2.43208108 46.9278507 2.41026055 43.062074 2.39665604 39.19618988 C2.38371092 35.54853821 2.36152616 31.90105322 2.33261681 28.25349426 C2.31939472 26.29490394 2.31564377 24.33625662 2.31230164 22.37762451 C2.24087763 14.73535223 1.50335234 7.49504202 0 0 Z " fill="#B8A6F4" transform="translate(130,107)"/>
<path d="M0 0 C4.14266968 2.76177979 5.57365319 5.94508961 6.57842159 10.78788185 C7.01501279 14.11438641 7.12295548 17.28929006 7.12025452 20.64389038 C7.12110894 21.2860511 7.12196337 21.92821182 7.12284368 22.58983195 C7.12448194 24.72707191 7.1190044 26.8642322 7.11352539 29.00146484 C7.11324314 30.5392761 7.113402 32.0770875 7.1139679 33.61489868 C7.11425437 37.77971167 7.10838178 41.94449576 7.10139394 46.10930204 C7.09513553 50.46549552 7.09455463 54.82168968 7.09336853 59.17788696 C7.09026255 67.42253071 7.08205904 75.66716117 7.07201904 83.91179907 C7.06083514 93.29990771 7.05534171 102.68801699 7.05032361 112.07613063 C7.03987582 131.38409461 7.02229057 150.69204624 7 170 C6.67 170 6.34 170 6 170 C5.99761165 169.20762404 5.99522329 168.41524809 5.99276257 167.59886074 C5.9336033 148.31055705 5.85804723 129.02238121 5.76428509 109.73421383 C5.71933683 100.40656095 5.6799199 91.07894617 5.65356445 81.7512207 C5.63057654 73.62031752 5.59716962 65.48953499 5.55129844 57.35872751 C5.52737692 53.05429299 5.50864113 48.7499779 5.50238609 44.44547844 C5.49633038 40.39150523 5.47631308 36.33783754 5.44572449 32.28397751 C5.43695204 30.79854899 5.43322004 29.31308054 5.43499184 27.82762718 C5.48180507 17.50628864 5.48180507 17.50628864 2 8 C1.8125 5.0625 1.8125 5.0625 2 3 C1.01 3.33 0.02 3.66 -1 4 C-3.1875 3.0625 -3.1875 3.0625 -5 2 C-5 1.34 -5 0.68 -5 0 C-5.99 -0.33 -6.98 -0.66 -8 -1 C-4.3286919 -2.22376937 -3.40346492 -1.61664584 0 0 Z " fill="#7860D0" transform="translate(273,70)"/>
<path d="M0 0 C1.48500521 0.00187023 2.97001104 0.00329127 4.45501709 0.00428772 C8.32153087 0.00806534 12.18800575 0.01785368 16.05450439 0.0289917 C20.01679966 0.03930938 23.97910136 0.0438073 27.94140625 0.04882812 C35.68491337 0.05948132 43.42838869 0.07649892 51.171875 0.09765625 C50.841875 0.75765625 50.511875 1.41765625 50.171875 2.09765625 C26.081875 2.42765625 1.991875 2.75765625 -22.828125 3.09765625 C-23.158125 3.75765625 -23.488125 4.41765625 -23.828125 5.09765625 C-25.7648346 5.67577852 -27.72943327 6.16221347 -29.703125 6.59765625 C-33.39618847 7.41635948 -35.65325482 7.98107613 -38.828125 10.09765625 C-42.015625 10.22265625 -42.015625 10.22265625 -44.828125 10.09765625 C-43.03923001 6.63912594 -40.99574842 5.57961681 -37.453125 4.34765625 C-34.16053514 3.35397089 -31.29267155 2.76237755 -27.828125 3.09765625 C-27.828125 2.43765625 -27.828125 1.77765625 -27.828125 1.09765625 C-18.54322267 0.13118096 -9.32383383 -0.03499327 0 0 Z " fill="#6A55C2" transform="translate(205.828125,251.90234375)"/>
<path d="M0 0 C0.33 0.66 0.66 1.32 1 2 C0.53384875 2.87777666 0.06769751 3.75555332 -0.41257954 4.65992928 C-2.25913071 8.54523356 -2.38352495 11.15403634 -2.39872742 15.44113159 C-2.40537424 16.16904691 -2.41202107 16.89696223 -2.41886932 17.64693558 C-2.43745151 20.07450085 -2.43489733 22.50157116 -2.43237305 24.92919922 C-2.44139314 26.67391147 -2.45172097 28.41861738 -2.46325684 30.16331482 C-2.49082387 34.89216431 -2.50011097 39.62089355 -2.50611091 44.34981298 C-2.51549531 49.29462794 -2.54169879 54.23935309 -2.56611633 59.18411255 C-2.60978313 68.54433508 -2.63832901 77.90454018 -2.66143972 87.26483357 C-2.68849039 97.92262088 -2.73240201 108.58031787 -2.77772844 119.23804069 C-2.87057732 141.1586452 -2.94225698 163.07927675 -3 185 C-3.33 185 -3.66 185 -4 185 C-4.02334477 161.8607673 -4.04098695 138.72153654 -4.05181217 115.58229446 C-4.05697176 104.83871314 -4.06400808 94.09513913 -4.07543945 83.3515625 C-4.08539654 73.98911495 -4.09185588 64.6266727 -4.09408849 55.26422 C-4.09539385 50.30540483 -4.09846872 45.34660481 -4.10573006 40.38779449 C-4.11250641 35.72248656 -4.11461365 31.05720005 -4.11310768 26.39188766 C-4.11338328 24.67780567 -4.11537884 22.96372298 -4.11920547 21.24964523 C-4.1241679 18.91259915 -4.12298882 16.57563433 -4.12025452 14.23858643 C-4.12117631 12.92964039 -4.1220981 11.62069435 -4.12304783 10.27208328 C-4.02361235 7.62789874 -3.79625198 5.50215245 -3 3 C-2.34 3 -1.68 3 -1 3 C-0.67 2.01 -0.34 1.02 0 0 Z " fill="#947FCC" transform="translate(15,73)"/>
<path d="M0 0 C9.93588364 -0.06957695 19.8717091 -0.12285037 29.80778694 -0.15543652 C34.42175032 -0.17107796 39.03554675 -0.19228842 43.64941406 -0.22631836 C48.10386669 -0.25896611 52.55815895 -0.27686446 57.01272202 -0.28463173 C58.71035155 -0.29016552 60.40797252 -0.30097173 62.1055336 -0.31719017 C64.4873766 -0.33903674 66.86856086 -0.34196395 69.25048828 -0.34057617 C69.94892349 -0.351362 70.6473587 -0.36214783 71.36695862 -0.3732605 C75.96490861 -0.34436122 79.05108325 0.67880841 83 3 C80.29904751 3.9723429 78.70652203 3.957086 75.81614685 3.53443909 C71.98553844 2.9979747 68.3699952 2.87977471 64.50415039 2.88647461 C63.79111755 2.88632858 63.07808472 2.88618256 62.34344482 2.8860321 C60.0114832 2.88672287 57.67960374 2.8944757 55.34765625 2.90234375 C53.72098331 2.9042109 52.09430981 2.9056334 50.46763611 2.90663147 C46.20484846 2.91043323 41.94209537 2.92024332 37.67932129 2.93133545 C33.32202624 2.9416001 28.96472556 2.94613988 24.60742188 2.95117188 C16.0715988 2.96186787 7.53580371 2.97891591 -1 3 C-0.67 2.01 -0.34 1.02 0 0 Z " fill="#D0C5F4" transform="translate(28,63)"/>
<path d="M0 0 C10.21394774 -0.0463537 20.42787043 -0.08188467 30.64190197 -0.10362434 C35.38475957 -0.11405863 40.12754517 -0.12821141 44.87036133 -0.15087891 C49.44799316 -0.17261986 54.02555576 -0.1845713 58.60323524 -0.18975449 C60.34912519 -0.19344798 62.09501137 -0.20066045 63.84087181 -0.21146011 C66.28747096 -0.22599166 68.73378452 -0.22797725 71.18041992 -0.22705078 C71.90115189 -0.23424133 72.62188385 -0.24143188 73.36445618 -0.24884033 C77.3539513 -0.23250833 80.40693504 0.23889088 84 2 C84 2.33 84 2.66 84 3 C73.49059945 2.91569593 62.98135232 2.82085146 52.47217083 2.71247292 C47.59256024 2.6624836 42.71297158 2.61615382 37.83325195 2.578125 C33.12584678 2.54130546 28.41862392 2.49495464 23.71137428 2.44193649 C21.91363529 2.4233748 20.1158572 2.40827343 18.31805992 2.39665604 C15.80389022 2.37982386 13.29013966 2.35079654 10.77612305 2.31884766 C10.02949905 2.31668747 9.28287506 2.31452728 8.5136261 2.31230164 C4.80266839 2.25188309 3.16975626 2.11317084 0 0 Z " fill="#6952CA" transform="translate(26,272)"/>
<path d="M0 0 C0.33 0 0.66 0 1 0 C0.99870118 0.6813822 0.99740236 1.3627644 0.99606419 2.06479454 C0.96681104 18.67544591 0.9763061 35.28558313 1.02846622 51.89616966 C1.05276514 59.92910721 1.06414384 67.96166834 1.04467773 75.99462891 C1.02773619 82.99951757 1.03547356 90.0038795 1.07234758 97.00869906 C1.09100879 100.71491286 1.09764956 104.42023669 1.07469368 108.12644577 C1.0494742 112.27300455 1.07937658 116.41746955 1.11352539 120.56396484 C1.0977092 121.78101105 1.08189301 122.99805725 1.06559753 124.25198364 C1.19941423 132.71897192 3.43161493 137.63332254 9 144 C6 144 6 144 4 142.4375 C-1.73149611 135.45223912 -1.39236971 128.68511969 -1.2487793 119.99633789 C-1.23946381 118.69809082 -1.23014832 117.39984375 -1.22055054 116.06225586 C-1.19478322 112.51916157 -1.15025375 108.97652659 -1.10225272 105.43367314 C-1.05522809 101.72487839 -1.02559976 98.01594478 -0.99409485 94.30699158 C-0.93187281 87.29115943 -0.8540957 80.27559019 -0.77067453 73.25998157 C-0.67642594 65.26975636 -0.59960215 57.27939301 -0.52421319 49.28897107 C-0.36880966 32.85908337 -0.19161748 16.42950611 0 0 Z " fill="#674ACD" transform="translate(13,127)"/>
<path d="M0 0 C1.53413202 0.00373685 3.06826646 0.00658064 4.60240173 0.00857544 C8.61203773 0.01615908 12.6215255 0.03576135 16.63110352 0.0579834 C20.73386633 0.07855628 24.83665343 0.08760147 28.93945312 0.09765625 C36.96881751 0.119013 44.99806212 0.15308412 53.02734375 0.1953125 C53.02734375 0.5253125 53.02734375 0.8553125 53.02734375 1.1953125 C37.51734375 1.5253125 22.00734375 1.8553125 6.02734375 2.1953125 C6.02734375 2.5253125 6.02734375 2.8553125 6.02734375 3.1953125 C1.94441045 3.3923118 -2.13900891 3.57626726 -6.22265625 3.7578125 C-7.38152344 3.81388672 -8.54039063 3.86996094 -9.734375 3.92773438 C-10.84941406 3.97607422 -11.96445312 4.02441406 -13.11328125 4.07421875 C-14.65290527 4.14491577 -14.65290527 4.14491577 -16.22363281 4.21704102 C-18.69146308 4.19753507 -20.6293609 3.92330279 -22.97265625 3.1953125 C-22.97265625 3.8553125 -22.97265625 4.5153125 -22.97265625 5.1953125 C-23.63265625 5.1953125 -24.29265625 5.1953125 -24.97265625 5.1953125 C-25.19953125 5.7934375 -25.42640625 6.3915625 -25.66015625 7.0078125 C-27.31076758 9.75883138 -29.16986435 10.72015887 -31.97265625 12.1953125 C-30.56489143 7.71606081 -28.66841715 5.1047413 -24.97265625 2.1953125 C-16.75811952 -0.32863724 -8.50629439 -0.06124961 0 0 Z " fill="#7962D8" transform="translate(46.97265625,64.8046875)"/>
<path d="M0 0 C1.13598633 0.00483398 1.13598633 0.00483398 2.29492188 0.00976562 C3.47344727 0.02233398 3.47344727 0.02233398 4.67578125 0.03515625 C5.47306641 0.03966797 6.27035156 0.04417969 7.09179688 0.04882812 C9.05732382 0.06059775 11.0228121 0.07853277 12.98828125 0.09765625 C9.30789809 2.55124502 5.8272659 2.94415482 1.55078125 3.59765625 C-4.98227558 4.53945157 -4.98227558 4.53945157 -11.01171875 7.09765625 C-12.12546875 7.40703125 -13.23921875 7.71640625 -14.38671875 8.03515625 C-19.08948674 9.41355377 -22.94539869 11.38677621 -27.01171875 14.09765625 C-29.69921875 14.22265625 -29.69921875 14.22265625 -32.01171875 14.09765625 C-32.01171875 14.75765625 -32.01171875 15.41765625 -32.01171875 16.09765625 C-33.00171875 16.42765625 -33.99171875 16.75765625 -35.01171875 17.09765625 C-35.01171875 16.43765625 -35.01171875 15.77765625 -35.01171875 15.09765625 C-34.35171875 15.09765625 -33.69171875 15.09765625 -33.01171875 15.09765625 C-33.01171875 14.43765625 -33.01171875 13.77765625 -33.01171875 13.09765625 C-30.45025305 10.80116976 -29.53204303 10.09765625 -26.01171875 10.09765625 C-26.01171875 9.43765625 -26.01171875 8.77765625 -26.01171875 8.09765625 C-25.02171875 8.09765625 -24.03171875 8.09765625 -23.01171875 8.09765625 C-23.01171875 7.43765625 -23.01171875 6.77765625 -23.01171875 6.09765625 C-21.89152344 5.74832031 -20.77132812 5.39898437 -19.6171875 5.0390625 C-18.14452653 4.5794422 -16.67187054 4.11980595 -15.19921875 3.66015625 C-14.46123047 3.43005859 -13.72324219 3.19996094 -12.96289062 2.96289062 C-3.39138148 -0.02549911 -3.39138148 -0.02549911 0 0 Z " fill="#735ACB" transform="translate(185.01171875,65.90234375)"/>
<path d="M0 0 C0.64910843 -0.00511093 1.29821686 -0.01022186 1.96699524 -0.01548767 C4.11155427 -0.02938224 6.25579195 -0.02842729 8.40039062 -0.02612305 C9.89107381 -0.03000965 11.38175589 -0.03434425 12.87243652 -0.03910828 C15.99621166 -0.04656987 19.11987377 -0.04627939 22.24365234 -0.04101562 C26.24879338 -0.03521653 30.25347264 -0.05216246 34.25853729 -0.0753603 C37.33659576 -0.09008288 40.41454257 -0.09097146 43.49263 -0.08785057 C44.96943579 -0.08836438 46.44624773 -0.09361338 47.92301941 -0.10366249 C49.98674669 -0.11598363 52.04956874 -0.10926282 54.11328125 -0.09765625 C55.2878186 -0.09828568 56.46235596 -0.0989151 57.67248535 -0.0995636 C60.55664062 0.2746582 60.55664062 0.2746582 63.55664062 3.2746582 C39.46664062 2.9446582 15.37664062 2.6146582 -9.44335938 2.2746582 C-5.8595773 -0.11452985 -4.25822798 0.01670387 0 0 Z " fill="#6349D1" transform="translate(204.443359375,65.725341796875)"/>
<path d="M0 0 C7.74126386 -0.05071337 15.48248486 -0.08573928 23.22387695 -0.10986328 C25.85735678 -0.1199203 28.49082545 -0.1335676 31.12426758 -0.15087891 C34.909696 -0.1751399 38.69497676 -0.1864862 42.48046875 -0.1953125 C43.65772018 -0.20563507 44.83497162 -0.21595764 46.04789734 -0.22659302 C47.14866104 -0.22674408 48.24942474 -0.22689514 49.38354492 -0.22705078 C50.83249397 -0.23371262 50.83249397 -0.23371262 52.31071472 -0.24050903 C55.2041719 0.01825957 57.37111814 0.79403883 60 2 C60 2.33 60 2.66 60 3 C30.795 2.505 30.795 2.505 1 2 C0.67 1.34 0.34 0.68 0 0 Z " fill="#6249D2" transform="translate(52,66)"/>
<path d="M0 0 C0.671875 1.703125 0.671875 1.703125 1 4 C-0.109375 6.359375 -0.109375 6.359375 -1.75 8.75 C-2.28109375 9.54921875 -2.8121875 10.3484375 -3.359375 11.171875 C-3.90078125 11.77515625 -4.4421875 12.3784375 -5 13 C-5.99 13 -6.98 13 -8 13 C-8 13.66 -8 14.32 -8 15 C-11.53970097 16.17990032 -14.72727479 16.13218895 -18.40893555 16.11352539 C-19.16039856 16.11367142 -19.91186157 16.11381744 -20.68609619 16.1139679 C-23.16966642 16.11327129 -25.65316163 16.10549067 -28.13671875 16.09765625 C-29.85878966 16.09579118 -31.58086111 16.09436769 -33.30293274 16.09336853 C-37.83539291 16.0895504 -42.36782104 16.07972611 -46.90026855 16.06866455 C-51.52530484 16.05843531 -56.15034629 16.05386766 -60.77539062 16.04882812 C-69.8502745 16.03810323 -78.92513458 16.02103523 -88 16 C-88 15.67 -88 15.34 -88 15 C-87.09877411 14.98969254 -86.19754822 14.97938507 -85.26901245 14.96876526 C-76.76488753 14.87068067 -68.26083022 14.76815086 -59.75681877 14.66066074 C-55.38510451 14.6055585 -51.01338343 14.55215929 -46.64160156 14.50268555 C-42.42052732 14.45485408 -38.1995308 14.40250539 -33.97854996 14.34705925 C-32.37028063 14.32672052 -30.76199007 14.30799388 -29.15368271 14.29092598 C-26.8964854 14.26669314 -24.63943248 14.2366659 -22.38232422 14.20532227 C-21.09881073 14.18977798 -19.81529724 14.1742337 -18.4928894 14.15821838 C-15.24524839 14.01110908 -12.18928811 13.61203583 -9 13 C-9 12.34 -9 11.68 -9 11 C-8.01 11 -7.02 11 -6 11 C-5.34 9.35 -4.68 7.7 -4 6 C-3.34 6 -2.68 6 -2 6 C-1.34 4.02 -0.68 2.04 0 0 Z " fill="#5F45CB" transform="translate(278,257)"/>
<path d="M0 0 C8.85051721 -0.04671436 17.70099081 -0.08206501 26.55160522 -0.10362434 C30.66302909 -0.11398117 34.77436749 -0.12798867 38.88574219 -0.15087891 C42.86691099 -0.17290089 46.84799854 -0.18462918 50.82922363 -0.18975449 C52.33436356 -0.19339839 53.83949998 -0.20051048 55.34460449 -0.21146011 C65.72171488 -0.28382538 75.73326292 0.47898195 86 2 C86 2.66 86 3.32 86 4 C86.78375 4.12375 87.5675 4.2475 88.375 4.375 C91 5 91 5 93 7 C91.35 7 89.7 7 88 7 C88 6.34 88 5.68 88 5 C84.37 5 80.74 5 77 5 C77 4.34 77 3.68 77 3 C69.07758798 1.7351149 61.1273017 1.77419053 53.125 1.68359375 C51.5894316 1.66299047 50.05386844 1.64199319 48.51831055 1.62062073 C44.50055213 1.56574815 40.48274553 1.51618718 36.46490479 1.46777344 C32.35546645 1.41730219 28.24609703 1.36175065 24.13671875 1.30664062 C16.09120432 1.19948569 8.04563176 1.09794824 0 1 C0 0.67 0 0.34 0 0 Z " fill="#715FBF" transform="translate(35,252)"/>
<path d="M0 0 C-0.87011719 0.41378906 -0.87011719 0.41378906 -1.7578125 0.8359375 C-9.63997949 4.92807297 -15.73450498 10.82172566 -19.3125 19 C-20.14112772 22.61583003 -20.53988545 26.31908363 -21 30 C-28.26 30 -35.52 30 -43 30 C-43 28.35 -43 26.7 -43 25 C-42.67 26.32 -42.34 27.64 -42 29 C-35.73 29 -29.46 29 -23 29 C-22.814375 26.6178125 -22.814375 26.6178125 -22.625 24.1875 C-22.33817465 20.50657469 -22.10827055 19.16240582 -20 16 C-20.66 15.67 -21.32 15.34 -22 15 C-21.525625 14.401875 -21.05125 13.80375 -20.5625 13.1875 C-18.83534256 10.99617076 -18.83534256 10.99617076 -18 8 C-13.54285714 4 -13.54285714 4 -11 4 C-11 3.34 -11 2.68 -11 2 C-7.36576791 -0.32590854 -4.22911669 -0.16265833 0 0 Z " fill="#7157C8" transform="translate(178,278)"/>
<path d="M0 0 C1.51803755 3.0360751 0.41383274 5.19170655 -0.375 8.4375 C-0.65085938 9.59121094 -0.92671875 10.74492187 -1.2109375 11.93359375 C-1.73632394 13.97531827 -2.33331642 15.99994927 -3 18 C-5.50497004 19.25248502 -7.20853274 19.11374406 -10.0078125 19.09765625 C-10.99394531 19.09443359 -11.98007813 19.09121094 -12.99609375 19.08789062 C-14.02863281 19.07951172 -15.06117188 19.07113281 -16.125 19.0625 C-17.68541016 19.05573242 -17.68541016 19.05573242 -19.27734375 19.04882812 C-21.85158687 19.03701967 -24.42580053 19.01908385 -27 19 C-27.33 15.7 -27.66 12.4 -28 9 C-26 12 -26 12 -26 17 C-18.74 17 -11.48 17 -4 17 C-4 14.36 -4 11.72 -4 9 C-3.125 6.25 -3.125 6.25 -2 4 C-1.62875 3.236875 -1.2575 2.47375 -0.875 1.6875 C-0.441875 0.8521875 -0.441875 0.8521875 0 0 Z " fill="#CBBEF0" transform="translate(161,291)"/>
<path d="M0 0 C2.53470966 1.26735483 2.65339323 2.04919252 3.60668945 4.67358398 C5.62214803 11.11383872 5.37338476 17.53416275 5.29296875 24.22265625 C5.2873616 25.57742336 5.2830968 26.93219663 5.28010559 28.28697205 C5.26874466 31.82324526 5.23935521 35.35913873 5.20599365 38.89526367 C5.1751019 42.51541001 5.16155978 46.13561874 5.14648438 49.75585938 C5.11447523 56.83739332 5.06338742 63.91867164 5 71 C4.67 71 4.34 71 4 71 C4 51.53 4 32.06 4 12 C3.34 12 2.68 12 2 12 C1.34 8.04 0.68 4.08 0 0 Z " fill="#9A86E8" transform="translate(130,107)"/>
<path d="M0 0 C2.64 0 5.28 0 8 0 C4.91097663 3.61750688 2.56265778 4.67360447 -2.0625 5.625 C-5.73304328 6.39631317 -7.84492698 6.89661799 -11 9 C-14.1875 9.125 -14.1875 9.125 -17 9 C-15.21110501 5.54146969 -13.16762342 4.48196056 -9.625 3.25 C-6.33241014 2.25631464 -3.46454655 1.6647213 0 2 C0 1.34 0 0.68 0 0 Z " fill="#7156CE" transform="translate(178,253)"/>
<path d="M0 0 C2.89608593 -0.05413245 5.79115195 -0.09373641 8.6875 -0.125 C9.91243164 -0.15013672 9.91243164 -0.15013672 11.16210938 -0.17578125 C15.57092929 -0.2114802 18.98731576 -0.07580814 23 2 C23 2.33 23 2.66 23 3 C7.49346515 3.26993968 7.49346515 3.26993968 1 2 C0.67 1.34 0.34 0.68 0 0 Z " fill="#6850CA" transform="translate(89,66)"/>
<path d="M0 0 C0.33 0 0.66 0 1 0 C0.99097656 0.89460937 0.98195313 1.78921875 0.97265625 2.7109375 C1.19600457 11.81966465 2.96121591 17.15709583 9 24 C6 24 6 24 4 22.4375 C-0.57898061 16.85686738 -1.2285154 13.17298811 -0.6875 6.0625 C-0.47542452 4.03980163 -0.25188657 2.01812732 0 0 Z " fill="#7862CA" transform="translate(13,247)"/>
<path d="M0 0 C0.33 0.66 0.66 1.32 1 2 C0.5361792 2.8657666 0.0723584 3.7315332 -0.40551758 4.62353516 C-2.24405012 8.51679883 -2.47391944 11.80725056 -2.51171875 16.0234375 C-2.52966995 16.76961334 -2.54762115 17.51578918 -2.56611633 18.28457642 C-2.61993105 20.6479949 -2.65402067 23.01121486 -2.6875 25.375 C-2.72069872 26.98570454 -2.75519072 28.59638298 -2.79101562 30.20703125 C-2.87564018 34.13787687 -2.94258743 38.06866659 -3 42 C-3.33 42 -3.66 42 -4 42 C-4.02474682 37.08870815 -4.04288223 32.17745273 -4.05493164 27.26611328 C-4.05995569 25.59585945 -4.06677605 23.92561001 -4.07543945 22.25537109 C-4.08758946 19.85252804 -4.09324763 17.44974321 -4.09765625 15.046875 C-4.10281754 14.30193787 -4.10797882 13.55700073 -4.11329651 12.78948975 C-4.11366364 9.38497809 -4.07330918 6.25335241 -3 3 C-2.34 3 -1.68 3 -1 3 C-0.67 2.01 -0.34 1.02 0 0 Z " fill="#A08DD6" transform="translate(15,73)"/>
<path d="M0 0 C2.96817643 0.88243083 4.69298196 1.64912223 6.75 4 C8.5195043 8.24681033 8.74309411 12.43770568 9 17 C5.44237029 11.66355543 2.15098782 6.06187475 0 0 Z " fill="#8F7AD7" transform="translate(126,286)"/>
<path d="M0 0 C0.671875 1.703125 0.671875 1.703125 1 4 C-0.109375 6.359375 -0.109375 6.359375 -1.75 8.75 C-2.54664063 9.94882812 -2.54664063 9.94882812 -3.359375 11.171875 C-3.90078125 11.77515625 -4.4421875 12.3784375 -5 13 C-5.99 13 -6.98 13 -8 13 C-8 13.66 -8 14.32 -8 15 C-10.375 15.625 -10.375 15.625 -13 16 C-13.66 15.34 -14.32 14.68 -15 14 C-13.02 13.67 -11.04 13.34 -9 13 C-9 12.34 -9 11.68 -9 11 C-8.01 11 -7.02 11 -6 11 C-5.34 9.35 -4.68 7.7 -4 6 C-3.34 6 -2.68 6 -2 6 C-1.34 4.02 -0.68 2.04 0 0 Z " fill="#6D53C9" transform="translate(278,257)"/>
<path d="M0 0 C1.32 0.33 2.64 0.66 4 1 C3.01 1.495 3.01 1.495 2 2 C2.33 2.66 2.66 3.32 3 4 C-4.28571429 8.57142857 -4.28571429 8.57142857 -9 8 C-9 8.66 -9 9.32 -9 10 C-9.99 10.33 -10.98 10.66 -12 11 C-12 10.34 -12 9.68 -12 9 C-11.34 9 -10.68 9 -10 9 C-10 8.34 -10 7.68 -10 7 C-7.4385343 4.70351351 -6.52032428 4 -3 4 C-3 3.34 -3 2.68 -3 2 C-2.01 2 -1.02 2 0 2 C0 1.34 0 0.68 0 0 Z " fill="#866FD1" transform="translate(162,72)"/>
<path d="M0 0 C3.3 0.33 6.6 0.66 10 1 C10 1.66 10 2.32 10 3 C11.175625 3.185625 11.175625 3.185625 12.375 3.375 C15 4 15 4 17 6 C15.35 6 13.7 6 12 6 C12 5.34 12 4.68 12 4 C8.37 4 4.74 4 1 4 C0.67 2.68 0.34 1.36 0 0 Z " fill="#9A88DC" transform="translate(111,253)"/>
<path d="M0 0 C3.87485635 -0.08751413 7.74945643 -0.14056435 11.625 -0.1875 C13.26662109 -0.22520508 13.26662109 -0.22520508 14.94140625 -0.26367188 C20.79681683 -0.31690288 25.06324498 -0.29983099 30 3 C26.18243176 4.37432457 22.92744671 3.67975039 19 3 C19 2.34 19 1.68 19 1 C12.73 1 6.46 1 0 1 C0 0.67 0 0.34 0 0 Z " fill="#E2D9F7" transform="translate(81,63)"/>
<path d="M0 0 C13.6332574 -0.3690205 13.6332574 -0.3690205 20 2 C20.33 3.32 20.66 4.64 21 6 C19.35303396 5.5247412 17.70745272 5.04468109 16.0625 4.5625 C15.14597656 4.29566406 14.22945312 4.02882813 13.28515625 3.75390625 C11 3 11 3 10 2 C8.31816052 1.76712992 6.6287584 1.58735834 4.9375 1.4375 C4.01839844 1.35371094 3.09929687 1.26992187 2.15234375 1.18359375 C1.08693359 1.09271484 1.08693359 1.09271484 0 1 C0 0.67 0 0.34 0 0 Z " fill="#6953C4" transform="translate(95,87)"/>
<path d="M0 0 C2 1 2 1 3.625 4.5625 C5.8638007 11.49265694 5.23817342 18.81069119 5 26 C4.67 26 4.34 26 4 26 C4 21.38 4 16.76 4 12 C3.34 12 2.68 12 2 12 C1.34 8.04 0.68 4.08 0 0 Z " fill="#AD9CE7" transform="translate(130,107)"/>
<path d="M0 0 C2.8125 0.5 2.8125 0.5 6 2 C8.71886652 6.34221906 9.37991415 10.93447806 9 16 C8.7215625 15.43410156 8.443125 14.86820313 8.15625 14.28515625 C6.98611582 11.97255999 5.75766412 9.70359603 4.5 7.4375 C4.0771875 6.67308594 3.654375 5.90867187 3.21875 5.12109375 C2.21427159 3.37291499 1.11839251 1.67758876 0 0 Z " fill="#7157CA" transform="translate(125,99)"/>
<path d="M0 0 C0.66 0.33 1.32 0.66 2 1 C1.01 1.33 0.02 1.66 -1 2 C-1 2.66 -1 3.32 -1 4 C-1.66 4 -2.32 4 -3 4 C-3.226875 4.598125 -3.45375 5.19625 -3.6875 5.8125 C-5.33811133 8.56351888 -7.1972081 9.52484637 -10 11 C-8.60506348 6.56156561 -6.48101799 4.0565036 -3 1 C-2.01 0.67 -1.02 0.34 0 0 Z " fill="#7A62CD" transform="translate(25,66)"/>
<path d="M0 0 C2.97 0.33 5.94 0.66 9 1 C9 1.66 9 2.32 9 3 C9.66 3 10.32 3 11 3 C12.625 4.3125 12.625 4.3125 14 6 C14 6.99 14 7.98 14 9 C12.68 8.67 11.36 8.34 10 8 C10 7.01 10 6.02 10 5 C6.77484237 3.26337666 3.48670834 2.1094072 0 1 C0 0.67 0 0.34 0 0 Z " fill="#806ACF" transform="translate(112,277)"/>
<path d="M0 0 C-3.21451269 1.60725635 -6.43612536 1.05748185 -10 1 C-10 1.66 -10 2.32 -10 3 C-16.28571429 5.42857143 -16.28571429 5.42857143 -20 4 C-19.34 4 -18.68 4 -18 4 C-18 3.34 -18 2.68 -18 2 C-16.35 2 -14.7 2 -13 2 C-13 1.34 -13 0.68 -13 0 C-11.58456585 -0.19658808 -10.16755969 -0.38187546 -8.75 -0.5625 C-7.96109375 -0.66691406 -7.1721875 -0.77132812 -6.359375 -0.87890625 C-3.99467126 -1.00027349 -2.2488963 -0.69633257 0 0 Z " fill="#D3C9F2" transform="translate(188,252)"/>
<path d="M0 0 C2.64 0 5.28 0 8 0 C6.625 2 6.625 2 4 4 C0.6419531 4.35791096 -2.63536357 4.23115823 -6 4 C-5.67 3.34 -5.34 2.68 -5 2 C-3.35 2 -1.7 2 0 2 C0 1.34 0 0.68 0 0 Z " fill="#7962CF" transform="translate(178,253)"/>
<path d="M0 0 C0 0.66 0 1.32 0 2 C-0.99 2 -1.98 2 -3 2 C-3.226875 2.5775 -3.45375 3.155 -3.6875 3.75 C-5.33038023 6.5663661 -7.39533227 8.08077114 -10 10 C-10 7 -10 7 -8.3203125 5.17578125 C-7.59585938 4.56089844 -6.87140625 3.94601562 -6.125 3.3125 C-5.40570313 2.68988281 -4.68640625 2.06726563 -3.9453125 1.42578125 C-2 0 -2 0 0 0 Z " fill="#D7CBF1" transform="translate(173,281)"/>
<path d="M0 0 C-3.14573677 2.09715785 -5.01456251 2.52004559 -8.6875 3.125 C-10.17830078 3.37636719 -10.17830078 3.37636719 -11.69921875 3.6328125 C-12.45847656 3.75398438 -13.21773437 3.87515625 -14 4 C-14 3.34 -14 2.68 -14 2 C-9.35150485 -0.3992233 -5.08913926 -0.19957409 0 0 Z " fill="#745DC9" transform="translate(193,87)"/>
<path d="M0 0 C1.98 0 3.96 0 6 0 C6 0.66 6 1.32 6 2 C8.64 2.33 11.28 2.66 14 3 C14 3.66 14 4.32 14 5 C7.25 4.125 7.25 4.125 5 3 C5 2.34 5 1.68 5 1 C3.35 1 1.7 1 0 1 C0 0.67 0 0.34 0 0 Z " fill="#6A51CC" transform="translate(117,257)"/>
<path d="M0 0 C3.3 0 6.6 0 10 0 C10.33 0.99 10.66 1.98 11 3 C7.37 2.67 3.74 2.34 0 2 C0 1.34 0 0.68 0 0 Z " fill="#6E56D0" transform="translate(107,275)"/>
<path d="M0 0 C1.33855056 0.78281305 2.67073644 1.57651877 4 2.375 C5.11375 3.03628906 5.11375 3.03628906 6.25 3.7109375 C6.8275 4.13632812 7.405 4.56171875 8 5 C8 5.66 8 6.32 8 7 C4.84859577 6.65930765 3.39218439 6.41923159 1.1875 4.0625 C0 2 0 2 0 0 Z " fill="#6348C9" transform="translate(18,265)"/>
<path d="M0 0 C0.99 0 1.98 0 3 0 C4.4783226 2.95664519 4.06032783 5.74229737 4 9 C2 8 2 8 1.3671875 6.15234375 C1.20476562 5.42144531 1.04234375 4.69054687 0.875 3.9375 C0.70742188 3.20402344 0.53984375 2.47054687 0.3671875 1.71484375 C0.24601562 1.14894531 0.12484375 0.58304687 0 0 Z " fill="#725CC6" transform="translate(275,76)"/>
<path d="M0 0 C4.05606165 0.46800711 7.46588679 0.87953208 11 3 C7.7169902 4.6415049 4.57454967 3.51888624 1 3 C0.67 2.01 0.34 1.02 0 0 Z " fill="#9582DA" transform="translate(111,67)"/>
<path d="M0 0 C4.55384615 -0.36923077 4.55384615 -0.36923077 6.8125 1.5 C7.204375 1.995 7.59625 2.49 8 3 C7.67 3.99 7.34 4.98 7 6 C6.38125 5.2884375 6.38125 5.2884375 5.75 4.5625 C3.817815 2.83733482 2.51807725 2.43415125 0 2 C0 1.34 0 0.68 0 0 Z " fill="#755DCD" transform="translate(117,93)"/>
<path d="M0 0 C0 1.32 0 2.64 0 4 C-1.65 4 -3.3 4 -5 4 C-5 4.66 -5 5.32 -5 6 C-5.99 6.33 -6.98 6.66 -8 7 C-8 6.34 -8 5.68 -8 5 C-7.34 5 -6.68 5 -6 5 C-6 4.34 -6 3.68 -6 3 C-2.53846154 0 -2.53846154 0 0 0 Z " fill="#9885D7" transform="translate(158,76)"/>
<path d="M0 0 C3.86648272 1.04097612 7.49461443 2.03698408 11 4 C11 4.33 11 4.66 11 5 C9.02 5 7.04 5 5 5 C5 4.01 5 3.02 5 2 C3.35 2 1.7 2 0 2 C0 1.34 0 0.68 0 0 Z " fill="#7861CA" transform="translate(119,70)"/>
<path d="M0 0 C5.53846154 -0.36923077 5.53846154 -0.36923077 7.875 1.5 C8.24625 1.995 8.6175 2.49 9 3 C3.46153846 3.36923077 3.46153846 3.36923077 1.125 1.5 C0.75375 1.005 0.3825 0.51 0 0 Z " fill="#6950C6" transform="translate(259,66)"/>
<path d="M0 0 C3.125 -0.1875 3.125 -0.1875 6 0 C6 0.66 6 1.32 6 2 C3.36 2.33 0.72 2.66 -2 3 C-1.34 2.01 -0.68 1.02 0 0 Z " fill="#674DCB" transform="translate(175,275)"/>
<path d="M0 0 C0.33 0.66 0.66 1.32 1 2 C0.67 2.66 0.34 3.32 0 4 C-2.64860427 4.59355614 -5.29197322 4.74209269 -8 5 C-7.34 4.34 -6.68 3.68 -6 3 C-5.01 3 -4.02 3 -3 3 C-3 2.34 -3 1.68 -3 1 C-2.01 0.67 -1.02 0.34 0 0 Z " fill="#C8B8ED" transform="translate(273,269)"/>
<path d="M0 0 C2.97 0.495 2.97 0.495 6 1 C6.33 2.32 6.66 3.64 7 5 C4.0625 4.1875 4.0625 4.1875 1 3 C0.67 2.01 0.34 1.02 0 0 Z " fill="#715ACE" transform="translate(109,88)"/>
<path d="M0 0 C5.75 -0.125 5.75 -0.125 8 1 C8 1.99 8 2.98 8 4 C7.01 4 6.02 4 5 4 C5 3.34 5 2.68 5 2 C3.35 1.67 1.7 1.34 0 1 C0 0.67 0 0.34 0 0 Z " fill="#684CCC" transform="translate(125,75)"/>
</svg>
