<?xml version="1.0" standalone="no"?>
<!DOCTYPE svg PUBLIC "-//W3C//DTD SVG 20010904//EN"
 "http://www.w3.org/TR/2001/REC-SVG-20010904/DTD/svg10.dtd">
<svg version="1.0" xmlns="http://www.w3.org/2000/svg"
 width="2000.000000pt" height="2000.000000pt" viewBox="0 0 2000.000000 2000.000000"
 preserveAspectRatio="xMidYMid meet">

<g transform="translate(0.000000,2000.000000) scale(0.100000,-0.100000)"
fill="#000000" stroke="none">
<path d="M4006 11135 c-60 -21 -88 -47 -118 -106 l-28 -54 0 -870 0 -870 24
-51 c23 -50 53 -78 109 -102 20 -9 125 -12 365 -12 185 0 364 -5 397 -10 142
-23 232 -73 286 -158 27 -43 35 -65 53 -144 l6 -28 105 0 c102 0 105 1 105 23
0 33 27 115 50 153 44 70 136 124 253 148 61 13 146 16 427 16 328 0 353 1
389 20 21 10 50 33 65 50 56 67 55 60 52 980 -2 628 -6 855 -15 884 -16 49
-88 121 -138 136 -27 8 -152 10 -418 8 -326 -4 -389 -7 -445 -22 -104 -29
-204 -81 -270 -142 l-60 -57 -53 50 c-88 83 -188 131 -332 159 -101 20 -753
19 -809 -1z m791 -220 c98 -25 179 -71 219 -123 74 -97 69 -35 72 -859 3 -712
2 -743 -15 -743 -10 0 -28 6 -39 14 -28 20 -136 54 -224 71 -56 11 -157 15
-402 15 l-328 0 0 820 0 820 330 0 c260 0 341 -3 387 -15z m1528 -805 l0 -815
-350 -6 c-192 -4 -372 -11 -400 -17 -68 -14 -167 -48 -211 -73 -21 -12 -40
-17 -46 -11 -14 14 -5 1460 10 1504 20 58 73 130 119 161 23 15 75 39 115 52
72 23 79 23 418 22 l345 -2 0 -815z"/>
<path d="M15880 10650 l0 -130 -130 0 -130 0 0 -55 0 -55 130 0 130 0 0 -130
0 -130 55 0 54 0 3 128 3 127 128 3 127 3 0 54 0 55 -130 0 -130 0 0 130 0
130 -55 0 -55 0 0 -130z"/>
<path d="M7568 10700 c-207 -37 -375 -163 -463 -345 -58 -120 -69 -180 -70
-365 0 -143 3 -175 23 -245 67 -229 226 -392 442 -451 89 -24 281 -25 369 -1
211 57 358 204 406 408 9 41 15 114 15 202 l0 137 -290 0 -290 0 0 -110 0
-110 151 0 151 0 -7 -47 c-15 -105 -94 -196 -195 -225 -65 -19 -185 -16 -247
5 -106 37 -194 149 -222 285 -14 68 -14 236 0 304 27 127 94 220 197 270 60
30 75 33 152 33 133 -1 215 -48 266 -150 l26 -55 149 0 c82 0 149 4 149 8 0
20 -34 121 -56 163 -12 25 -46 71 -74 102 -110 120 -257 185 -433 192 -56 2
-123 0 -149 -5z"/>
<path d="M11080 10423 l0 -267 -28 45 c-39 61 -105 115 -165 135 -76 25 -205
16 -282 -21 -111 -53 -201 -174 -236 -315 -18 -72 -18 -298 0 -370 7 -30 26
-83 42 -116 97 -207 334 -298 526 -202 46 23 106 83 126 126 19 41 27 23 27
-63 l0 -85 140 0 140 0 0 700 0 700 -145 0 -145 0 0 -267z m-115 -326 c85 -48
132 -168 122 -312 -7 -96 -27 -158 -68 -208 -42 -51 -83 -70 -149 -70 -103 0
-169 56 -204 173 -21 69 -21 198 0 271 19 66 71 134 118 155 50 21 135 17 181
-9z"/>
<path d="M12730 9990 l0 -700 145 0 145 0 0 223 0 224 183 6 c250 9 344 38
445 137 218 214 157 623 -111 755 -97 47 -165 55 -499 55 l-308 0 0 -700z
m620 436 c87 -45 124 -109 124 -211 -1 -101 -37 -165 -119 -208 -34 -19 -60
-22 -187 -25 l-148 -4 0 237 0 237 148 -4 c117 -3 154 -8 182 -22z"/>
<path d="M8922 10328 c-49 -23 -106 -86 -124 -135 -7 -18 -16 -33 -20 -33 -4
0 -8 41 -8 90 l0 90 -140 0 -140 0 0 -525 0 -525 145 0 145 0 0 308 c0 356 5
387 69 445 21 19 55 40 76 47 35 12 104 9 150 -5 18 -5 24 7 60 107 22 61 41
115 43 119 2 3 -15 14 -38 23 -58 23 -164 20 -218 -6z"/>
<path d="M9580 10334 c-147 -39 -255 -135 -288 -255 l-10 -36 132 -11 c118
-10 132 -10 141 5 28 45 70 84 103 93 129 35 237 -20 230 -118 -5 -68 -25 -78
-208 -102 -226 -29 -294 -54 -367 -133 -50 -54 -63 -96 -63 -202 1 -162 88
-262 258 -295 155 -31 295 19 379 135 l22 30 1 -77 0 -78 135 0 135 0 0 388
c0 457 -1 465 -83 546 -58 58 -118 89 -210 111 -79 19 -236 18 -307 -1z m317
-642 c-2 -44 -12 -92 -20 -108 -51 -97 -182 -141 -284 -95 -96 44 -96 164 0
210 23 11 83 27 132 36 50 8 104 19 120 24 58 18 58 18 52 -67z"/>
<path d="M11913 10335 c-224 -61 -363 -261 -363 -525 0 -163 52 -304 147 -399
67 -67 140 -105 238 -126 250 -53 494 40 579 220 39 81 38 82 -51 89 -43 4
-101 8 -129 11 -51 5 -52 4 -77 -34 -72 -108 -278 -111 -366 -5 -31 38 -51 94
-51 143 l0 31 355 0 355 0 0 83 c-1 267 -128 453 -351 512 -68 19 -218 18
-286 0z m256 -224 c57 -30 93 -81 106 -154 l7 -37 -221 0 -221 0 0 23 c1 35
34 99 71 135 63 61 174 75 258 33z"/>
<path d="M14372 10324 c-56 -28 -90 -65 -119 -130 l-18 -39 -3 93 -3 92 -139
0 -140 0 0 -525 0 -525 145 0 145 0 0 328 c0 325 0 329 23 373 13 24 43 57 66
74 36 25 51 29 109 30 37 0 77 -4 88 -8 20 -7 25 1 63 105 23 62 41 117 41
121 0 17 -73 37 -138 37 -53 0 -79 -6 -120 -26z"/>
<path d="M15073 10335 c-224 -61 -363 -261 -363 -525 0 -336 222 -555 545
-537 120 7 209 36 287 95 120 90 185 223 195 397 8 134 -9 227 -58 324 -63
126 -167 210 -306 246 -71 19 -230 18 -300 0z m243 -225 c95 -47 150 -211 124
-375 -27 -174 -120 -259 -256 -234 -63 12 -107 48 -138 113 -84 178 -32 443
99 502 45 20 122 17 171 -6z"/>
</g>
</svg>
